<svg xmlns="http://www.w3.org/2000/svg" width="128" height="128" viewBox="0 0 1024 1024"><path d="M 511 837 Z" fill="#2E7D6B"/><path d="M 473 794 Z" fill="#2E7D6B"/><path d="M 466 780 Z" fill="#2E7D6B"/><path d="M 558 777 Z" fill="#2E7D6B"/><path d="M 559 775 Z" fill="#2E7D6B"/><path d="M 464 775 Z" fill="#2E7D6B"/><path d="M 460 765 460 766 Z" fill="#2E7D6B"/><path d="M 564 762 Z" fill="#2E7D6B"/><path d="M 456 751 Z" fill="#2E7D6B"/><path d="M 567 750 567 752 Z" fill="#2E7D6B"/><path d="M 455 747 455 748 Z" fill="#2E7D6B"/><path d="M 454 742 Z" fill="#2E7D6B"/><path d="M 453 738 453 739 Z" fill="#2E7D6B"/><path d="M 632 734 Z" fill="#2E7D6B"/><path d="M 628 734 629 734 Z" fill="#2E7D6B"/><path d="M 404 734 Z" fill="#2E7D6B"/><path d="M 397 734 Z" fill="#2E7D6B"/><path d="M 394 734 395 734 Z" fill="#2E7D6B"/><path d="M 648 733 Z" fill="#2E7D6B"/><path d="M 615 733 616 733 Z" fill="#2E7D6B"/><path d="M 407 733 408 733 Z" fill="#2E7D6B"/><path d="M 381 733 382 733 Z" fill="#2E7D6B"/><path d="M 609 732 Z" fill="#2E7D6B"/><path d="M 414 732 Z" fill="#2E7D6B"/><path d="M 412 732 Z" fill="#2E7D6B"/><path d="M 605 731 Z" fill="#2E7D6B"/><path d="M 656 730 Z" fill="#2E7D6B"/><path d="M 601 730 602 730 Z" fill="#2E7D6B"/><path d="M 452 730 452 732 Z" fill="#2E7D6B"/><path d="M 368 730 369 730 Z" fill="#2E7D6B"/><path d="M 571 729 571 730 Z" fill="#2E7D6B"/><path d="M 363 728 Z" fill="#2E7D6B"/><path d="M 593 727 Z" fill="#2E7D6B"/><path d="M 589 725 Z" fill="#2E7D6B"/><path d="M 451 719 Z" fill="#2E7D6B"/><path d="M 573 715 Z" fill="#2E7D6B"/><path d="M 451 714 451 715 Z" fill="#2E7D6B"/><path d="M 710 678 Z" fill="#2E7D6B"/><path d="M 312 674 Z" fill="#2E7D6B"/><path d="M 711 673 Z" fill="#2E7D6B"/><path d="M 511 672 Z" fill="#2E7D6B"/><path d="M 311 670 Z" fill="#2E7D6B"/><path d="M 513 669 Z" fill="#2E7D6B"/><path d="M 310 667 Z" fill="#2E7D6B"/><path d="M 516 663 Z" fill="#2E7D6B"/><path d="M 517 661 Z" fill="#2E7D6B"/><path d="M 714 660 Z" fill="#2E7D6B"/><path d="M 518 659 Z" fill="#2E7D6B"/><path d="M 516 659 Z" fill="#2E7D6B"/><path d="M 309 659 309 661 Z" fill="#2E7D6B"/><path d="M 516 657 Z" fill="#2E7D6B"/><path d="M 507 655 507 656 Z" fill="#2E7D6B"/><path d="M 764 654 Z" fill="#2E7D6B"/><path d="M 272 654 Z" fill="#2E7D6B"/><path d="M 771 653 Z" fill="#2E7D6B"/><path d="M 768 653 Z" fill="#2E7D6B"/><path d="M 517 653 Z" fill="#2E7D6B"/><path d="M 278 653 Z" fill="#2E7D6B"/><path d="M 253 653 254 653 Z" fill="#2E7D6B"/><path d="M 775 652 Z" fill="#2E7D6B"/><path d="M 740 652 Z" fill="#2E7D6B"/><path d="M 518 651 Z" fill="#2E7D6B"/><path d="M 506 651 506 653 Z" fill="#2E7D6B"/><path d="M 308 651 308 655 Z" fill="#2E7D6B"/><path d="M 730 649 Z" fill="#2E7D6B"/><path d="M 308 648 Z" fill="#2E7D6B"/><path d="M 297 647 Z" fill="#2E7D6B"/><path d="M 308 646 Z" fill="#2E7D6B"/><path d="M 719 644 Z" fill="#2E7D6B"/><path d="M 513 644 Z" fill="#2E7D6B"/><path d="M 510 643 510 645 Z" fill="#2E7D6B"/><path d="M 504 643 Z" fill="#2E7D6B"/><path d="M 714 641 Z" fill="#2E7D6B"/><path d="M 309 641 Z" fill="#2E7D6B"/><path d="M 514 639 Z" fill="#2E7D6B"/><path d="M 509 638 Z" fill="#2E7D6B"/><path d="M 502 637 Z" fill="#2E7D6B"/><path d="M 501 635 Z" fill="#2E7D6B"/><path d="M 516 629 Z" fill="#2E7D6B"/><path d="M 498 627 Z" fill="#2E7D6B"/><path d="M 517 625 Z" fill="#2E7D6B"/><path d="M 506 624 Z" fill="#2E7D6B"/><path d="M 527 623 Z" fill="#2E7D6B"/><path d="M 518 622 Z" fill="#2E7D6B"/><path d="M 501 610 Z" fill="#2E7D6B"/><path d="M 497 598 Z" fill="#2E7D6B"/><path d="M 176 596 Z" fill="#2E7D6B"/><path d="M 849 591 Z" fill="#2E7D6B"/><path d="M 493 589 Z" fill="#2E7D6B"/><path d="M 172 585 172 586 Z" fill="#2E7D6B"/><path d="M 533 582 Z" fill="#2E7D6B"/><path d="M 171 581 171 582 Z" fill="#2E7D6B"/><path d="M 852 579 Z" fill="#2E7D6B"/><path d="M 171 579 Z" fill="#2E7D6B"/><path d="M 487 576 Z" fill="#2E7D6B"/><path d="M 853 571 Z" fill="#2E7D6B"/><path d="M 853 568 Z" fill="#2E7D6B"/><path d="M 171 560 Z" fill="#2E7D6B"/><path d="M 478 557 Z" fill="#2E7D6B"/><path d="M 401 554 Z" fill="#2E7D6B"/><path d="M 514 552 514 555 Z" fill="#2E7D6B"/><path d="M 173 551 Z" fill="#2E7D6B"/><path d="M 508 550 Z" fill="#2E7D6B"/><path d="M 550 548 Z" fill="#2E7D6B"/><path d="M 508 548 Z" fill="#2E7D6B"/><path d="M 470 542 Z" fill="#2E7D6B"/><path d="M 515 541 Z" fill="#2E7D6B"/><path d="M 380 541 Z" fill="#2E7D6B"/><path d="M 649 537 Z" fill="#2E7D6B"/><path d="M 507 537 Z" fill="#2E7D6B"/><path d="M 516 534 Z" fill="#2E7D6B"/><path d="M 516 532 Z" fill="#2E7D6B"/><path d="M 506 532 Z" fill="#2E7D6B"/><path d="M 506 530 Z" fill="#2E7D6B"/><path d="M 667 528 Z" fill="#2E7D6B"/><path d="M 560 528 Z" fill="#2E7D6B"/><path d="M 356 528 357 529 Z" fill="#2E7D6B"/><path d="M 506 527 Z" fill="#2E7D6B"/><path d="M 678 523 Z" fill="#2E7D6B"/><path d="M 505 521 505 523 Z" fill="#2E7D6B"/><path d="M 565 518 Z" fill="#2E7D6B"/><path d="M 518 518 Z" fill="#2E7D6B"/><path d="M 333 518 Z" fill="#2E7D6B"/><path d="M 330 517 Z" fill="#2E7D6B"/><path d="M 519 514 Z" fill="#2E7D6B"/><path d="M 323 514 Z" fill="#2E7D6B"/><path d="M 319 513 Z" fill="#2E7D6B"/><path d="M 706 512 Z" fill="#2E7D6B"/><path d="M 568 512 Z" fill="#2E7D6B"/><path d="M 519 512 Z" fill="#2E7D6B"/><path d="M 317 512 Z" fill="#2E7D6B"/><path d="M 711 510 Z" fill="#2E7D6B"/><path d="M 205 510 Z" fill="#2E7D6B"/><path d="M 715 509 Z" fill="#2E7D6B"/><path d="M 307 509 308 509 Z" fill="#2E7D6B"/><path d="M 718 508 Z" fill="#2E7D6B"/><path d="M 570 508 Z" fill="#2E7D6B"/><path d="M 503 508 Z" fill="#2E7D6B"/><path d="M 305 508 Z" fill="#2E7D6B"/><path d="M 812 507 Z" fill="#2E7D6B"/><path d="M 722 507 Z" fill="#2E7D6B"/><path d="M 520 507 Z" fill="#2E7D6B"/><path d="M 810 506 Z" fill="#2E7D6B"/><path d="M 297 506 298 506 Z" fill="#2E7D6B"/><path d="M 729 505 730 505 Z" fill="#2E7D6B"/><path d="M 294 505 Z" fill="#2E7D6B"/><path d="M 805 504 Z" fill="#2E7D6B"/><path d="M 291 504 Z" fill="#2E7D6B"/><path d="M 217 504 218 504 Z" fill="#2E7D6B"/><path d="M 738 503 Z" fill="#2E7D6B"/><path d="M 285 503 Z" fill="#2E7D6B"/><path d="M 742 502 Z" fill="#2E7D6B"/><path d="M 502 502 Z" fill="#2E7D6B"/><path d="M 281 502 Z" fill="#2E7D6B"/><path d="M 795 501 797 501 Z" fill="#2E7D6B"/><path d="M 749 501 Z" fill="#2E7D6B"/><path d="M 747 501 Z" fill="#2E7D6B"/><path d="M 450 501 Z" fill="#2E7D6B"/><path d="M 275 501 Z" fill="#2E7D6B"/><path d="M 791 500 Z" fill="#2E7D6B"/><path d="M 752 500 755 500 Z" fill="#2E7D6B"/><path d="M 269 500 270 500 Z" fill="#2E7D6B"/><path d="M 248 500 247 501 236 501 235 502 230 502 229 503 226 503 225 504 223 504 222 505 220 505 219 506 217 506 216 507 215 507 214 508 213 508 212 509 211 509 210 510 209 510 208 511 207 511 205 513 204 513 202 515 201 515 198 518 197 518 188 527 188 528 185 531 185 532 183 534 183 535 181 537 181 538 180 539 180 540 179 541 179 542 178 543 178 544 177 545 177 547 176 548 176 550 175 551 175 553 174 554 174 557 173 558 173 564 172 565 172 575 173 576 173 582 174 583 174 586 175 587 175 589 176 590 176 592 177 593 177 594 178 595 178 597 179 598 179 599 181 601 181 602 182 603 182 604 183 605 183 606 186 609 186 610 188 612 188 613 204 629 205 629 208 632 209 632 211 634 212 634 214 636 215 636 217 638 218 638 219 639 220 639 221 640 222 640 223 641 224 641 225 642 226 642 227 643 228 643 229 644 230 644 231 645 233 645 234 646 236 646 237 647 239 647 240 648 242 648 243 649 246 649 247 650 251 650 252 651 264 651 265 652 269 652 270 651 279 651 280 650 283 650 284 649 287 649 288 648 290 648 291 647 293 647 294 646 295 646 296 645 298 645 300 643 301 643 302 642 303 642 304 641 305 641 306 640 307 640 309 638 310 638 311 639 311 646 310 647 310 655 311 656 311 663 312 664 312 667 313 668 313 671 314 672 314 674 315 675 315 677 316 678 316 679 317 680 317 681 318 682 318 684 319 685 319 686 321 688 321 689 322 690 322 691 324 693 324 694 326 696 326 697 329 700 329 701 342 714 343 714 346 717 347 717 349 719 350 719 352 721 353 721 354 722 355 722 356 723 357 723 358 724 359 724 360 725 362 725 363 726 364 726 365 727 367 727 368 728 370 728 371 729 374 729 375 730 379 730 380 731 389 731 390 732 401 732 402 731 409 731 410 730 414 730 415 729 418 729 419 728 422 728 423 727 424 727 425 726 427 726 428 725 429 725 430 724 431 724 432 723 433 723 434 722 436 722 438 720 439 720 440 719 441 719 443 717 444 717 447 714 448 714 452 710 453 711 453 724 454 725 454 733 455 734 455 739 456 740 456 744 457 745 457 748 458 749 458 752 459 753 459 756 460 757 460 759 461 760 461 762 462 763 462 765 463 766 463 768 464 769 464 770 465 771 465 773 466 774 466 775 467 776 467 778 468 779 468 780 469 781 469 782 470 783 470 784 471 785 471 786 472 787 472 788 474 790 474 791 475 792 475 793 476 794 476 795 478 797 478 798 479 799 479 800 481 802 481 803 483 805 483 806 486 809 486 810 485 811 486 810 489 813 489 814 495 820 495 821 496 822 495 823 496 822 502 828 503 828 508 833 509 833 511 835 513 835 516 832 517 832 529 820 529 819 534 814 535 815 534 814 534 813 537 810 537 809 540 806 540 805 542 803 542 802 544 800 544 799 545 798 545 797 547 795 547 794 548 793 548 792 549 791 549 790 550 789 550 788 552 786 552 785 553 784 553 783 554 782 554 780 555 779 555 778 556 777 556 776 557 775 557 773 558 772 558 771 559 770 559 768 560 767 560 765 561 764 561 762 562 761 562 759 563 758 563 756 564 755 564 753 565 752 565 749 566 748 566 744 567 743 567 739 568 738 568 733 569 732 569 723 570 722 570 712 571 711 573 713 574 713 577 716 578 716 580 718 581 718 582 719 583 719 585 721 586 721 587 722 588 722 589 723 590 723 591 724 592 724 593 725 595 725 596 726 597 726 598 727 600 727 601 728 603 728 604 729 608 729 609 730 612 730 613 731 620 731 621 732 635 732 636 731 644 731 645 730 649 730 650 729 653 729 654 728 656 728 657 727 659 727 660 726 661 726 662 725 664 725 665 724 666 724 667 723 668 723 669 722 670 722 672 720 673 720 674 719 675 719 677 717 678 717 682 713 683 713 693 703 693 702 697 698 697 697 699 695 699 694 700 693 700 692 702 690 702 689 703 688 703 687 704 686 704 685 705 684 705 683 706 682 706 680 707 679 707 678 708 677 708 675 709 674 709 672 710 671 710 668 711 667 711 663 712 662 712 639 713 638 714 639 715 639 717 641 716 642 716 643 716 642 717 641 718 641 719 642 720 642 721 643 722 643 723 644 724 644 725 645 726 645 727 646 729 646 730 647 731 647 732 648 735 648 736 649 738 649 739 650 743 650 744 651 753 651 754 652 763 652 764 651 771 651 772 650 777 650 778 649 780 649 781 648 784 648 785 647 787 647 788 646 789 646 790 645 792 645 793 644 794 644 795 643 796 643 797 642 798 642 799 641 800 641 801 640 802 640 803 639 804 639 806 637 807 637 808 636 809 636 811 634 812 634 815 631 816 631 819 628 820 628 834 614 834 613 837 610 837 609 839 607 839 606 841 604 841 603 842 602 842 601 843 600 843 599 844 598 844 597 845 596 845 595 846 594 846 593 847 592 847 590 848 589 848 586 849 585 849 582 850 581 850 576 851 575 851 567 850 566 850 558 849 557 849 554 848 553 848 551 847 550 847 548 846 547 846 545 845 544 845 543 844 542 844 541 843 540 843 539 842 538 842 537 840 535 840 534 838 532 838 531 835 528 835 527 827 519 826 519 822 515 821 515 819 513 818 513 816 511 815 511 814 510 813 510 812 509 811 509 810 508 809 508 808 507 806 507 805 506 804 506 803 505 801 505 800 504 798 504 797 503 794 503 793 502 788 502 787 501 758 501 757 502 751 502 750 503 746 503 745 504 741 504 740 505 736 505 735 506 732 506 731 507 728 507 727 508 725 508 724 509 721 509 720 510 718 510 717 511 714 511 713 512 711 512 710 513 708 513 707 514 706 514 705 515 703 515 702 516 700 516 699 517 697 517 696 518 695 518 694 519 692 519 691 520 690 520 689 521 687 521 686 522 685 522 684 523 683 523 682 524 680 524 679 525 678 525 677 526 676 526 675 527 674 527 673 528 672 528 671 529 670 529 669 530 668 530 667 531 665 531 664 532 663 532 662 533 661 533 660 534 659 534 657 536 656 536 655 537 654 537 653 538 652 538 651 539 650 539 649 540 648 540 646 542 645 542 644 543 643 543 642 544 641 544 640 545 639 545 637 547 636 547 634 549 633 549 632 550 631 550 629 552 628 552 626 554 625 554 624 555 623 555 621 557 620 557 618 559 617 559 615 561 614 561 611 564 610 564 607 567 606 567 604 569 603 569 600 572 599 572 595 576 594 576 590 580 589 580 584 585 583 585 575 593 574 593 553 614 553 615 547 621 547 622 542 627 542 628 538 632 538 633 535 636 535 637 532 640 532 641 530 643 530 644 528 646 528 647 526 649 526 650 525 651 525 652 523 654 523 655 522 656 522 657 520 659 520 660 519 661 519 662 518 663 518 664 517 665 517 666 516 667 516 668 515 669 515 670 514 671 514 672 513 673 513 675 512 676 511 676 510 675 510 674 509 673 509 671 508 670 508 669 507 668 507 667 506 666 506 665 505 664 505 663 504 662 504 661 502 659 502 658 501 657 501 656 500 655 500 654 498 652 498 651 496 649 496 648 495 647 495 646 493 644 493 643 490 640 490 639 488 637 488 636 485 633 485 632 481 628 481 627 477 623 477 622 470 615 470 614 449 593 448 593 440 585 439 585 434 580 433 580 428 575 427 575 424 572 423 572 420 569 419 569 416 566 415 566 413 564 412 564 410 562 409 562 406 559 405 559 404 558 403 558 401 556 400 556 397 553 396 553 395 552 394 552 392 550 391 550 390 549 389 549 387 547 386 547 385 546 384 546 382 544 381 544 380 543 379 543 378 542 377 542 375 540 374 540 373 539 372 539 371 538 370 538 369 537 368 537 367 536 366 536 365 535 364 535 363 534 362 534 361 533 360 533 359 532 358 532 357 531 356 531 355 530 354 530 353 529 352 529 351 528 350 528 349 527 348 527 347 526 346 526 345 525 343 525 342 524 341 524 340 523 339 523 338 522 337 522 336 521 337 520 336 521 334 521 333 520 332 520 331 519 329 519 328 518 326 518 325 517 324 517 323 516 321 516 320 515 318 515 317 514 315 514 314 513 313 513 312 512 310 512 309 511 306 511 305 510 303 510 302 509 299 509 298 508 295 508 294 507 292 507 291 506 288 506 287 505 283 505 282 504 278 504 277 503 272 503 271 502 265 502 264 501 250 501 249 500 Z" fill="#2E7D6B"/><path d="M 233 500 Z" fill="#2E7D6B"/><path d="M 230 500 Z" fill="#2E7D6B"/><path d="M 784 499 785 499 Z" fill="#2E7D6B"/><path d="M 759 499 762 499 Z" fill="#2E7D6B"/><path d="M 262 499 263 499 Z" fill="#2E7D6B"/><path d="M 238 499 239 499 Z" fill="#2E7D6B"/><path d="M 501 497 501 498 Z" fill="#2E7D6B"/><path d="M 522 496 522 497 Z" fill="#2E7D6B"/><path d="M 500 494 Z" fill="#2E7D6B"/><path d="M 499 489 Z" fill="#2E7D6B"/><path d="M 444 487 Z" fill="#2E7D6B"/><path d="M 498 483 Z" fill="#2E7D6B"/><path d="M 581 482 Z" fill="#2E7D6B"/><path d="M 582 480 Z" fill="#2E7D6B"/><path d="M 583 478 Z" fill="#2E7D6B"/><path d="M 526 477 526 478 Z" fill="#2E7D6B"/><path d="M 348 476 Z" fill="#2E7D6B"/><path d="M 584 475 Z" fill="#2E7D6B"/><path d="M 527 473 Z" fill="#2E7D6B"/><path d="M 496 473 Z" fill="#2E7D6B"/><path d="M 438 472 Z" fill="#2E7D6B"/><path d="M 339 470 Z" fill="#2E7D6B"/><path d="M 528 469 Z" fill="#2E7D6B"/><path d="M 436 467 Z" fill="#2E7D6B"/><path d="M 494 466 Z" fill="#2E7D6B"/><path d="M 435 464 Z" fill="#2E7D6B"/><path d="M 589 462 Z" fill="#2E7D6B"/><path d="M 327 462 Z" fill="#2E7D6B"/><path d="M 492 458 Z" fill="#2E7D6B"/><path d="M 531 457 Z" fill="#2E7D6B"/><path d="M 491 455 Z" fill="#2E7D6B"/><path d="M 593 452 592 453 Z" fill="#2E7D6B"/><path d="M 490 452 Z" fill="#2E7D6B"/><path d="M 490 450 Z" fill="#2E7D6B"/><path d="M 429 448 Z" fill="#2E7D6B"/><path d="M 534 446 534 447 Z" fill="#2E7D6B"/><path d="M 596 444 Z" fill="#2E7D6B"/><path d="M 488 444 Z" fill="#2E7D6B"/><path d="M 535 442 535 444 Z" fill="#2E7D6B"/><path d="M 427 442 Z" fill="#2E7D6B"/><path d="M 487 440 Z" fill="#2E7D6B"/><path d="M 426 440 Z" fill="#2E7D6B"/><path d="M 598 438 Z" fill="#2E7D6B"/><path d="M 486 437 Z" fill="#2E7D6B"/><path d="M 538 433 Z" fill="#2E7D6B"/><path d="M 484 432 Z" fill="#2E7D6B"/><path d="M 743 431 Z" fill="#2E7D6B"/><path d="M 278 427 Z" fill="#2E7D6B"/><path d="M 421 425 Z" fill="#2E7D6B"/><path d="M 541 424 Z" fill="#2E7D6B"/><path d="M 482 424 Z" fill="#2E7D6B"/><path d="M 542 421 Z" fill="#2E7D6B"/><path d="M 480 418 Z" fill="#2E7D6B"/><path d="M 543 417 Z" fill="#2E7D6B"/><path d="M 605 416 Z" fill="#2E7D6B"/><path d="M 606 413 Z" fill="#2E7D6B"/><path d="M 545 412 Z" fill="#2E7D6B"/><path d="M 765 409 Z" fill="#2E7D6B"/><path d="M 415 406 Z" fill="#2E7D6B"/><path d="M 769 405 Z" fill="#2E7D6B"/><path d="M 414 403 Z" fill="#2E7D6B"/><path d="M 474 401 Z" fill="#2E7D6B"/><path d="M 549 400 Z" fill="#2E7D6B"/><path d="M 551 395 551 396 Z" fill="#2E7D6B"/><path d="M 472 395 Z" fill="#2E7D6B"/><path d="M 612 393 Z" fill="#2E7D6B"/><path d="M 411 393 Z" fill="#2E7D6B"/><path d="M 778 392 Z" fill="#2E7D6B"/><path d="M 613 390 Z" fill="#2E7D6B"/><path d="M 469 388 Z" fill="#2E7D6B"/><path d="M 554 387 Z" fill="#2E7D6B"/><path d="M 409 386 Z" fill="#2E7D6B"/><path d="M 468 385 Z" fill="#2E7D6B"/><path d="M 237 378 237 379 Z" fill="#2E7D6B"/><path d="M 617 376 Z" fill="#2E7D6B"/><path d="M 620 367 Z" fill="#2E7D6B"/><path d="M 461 367 Z" fill="#2E7D6B"/><path d="M 403 367 Z" fill="#2E7D6B"/><path d="M 621 364 Z" fill="#2E7D6B"/><path d="M 792 363 Z" fill="#2E7D6B"/><path d="M 230 359 Z" fill="#2E7D6B"/><path d="M 565 358 Z" fill="#2E7D6B"/><path d="M 567 353 Z" fill="#2E7D6B"/><path d="M 229 353 229 355 Z" fill="#2E7D6B"/><path d="M 625 352 Z" fill="#2E7D6B"/><path d="M 454 349 Z" fill="#2E7D6B"/><path d="M 795 348 Z" fill="#2E7D6B"/><path d="M 228 348 Z" fill="#2E7D6B"/><path d="M 627 347 Z" fill="#2E7D6B"/><path d="M 453 345 Z" fill="#2E7D6B"/><path d="M 228 345 228 346 Z" fill="#2E7D6B"/><path d="M 570 344 Z" fill="#2E7D6B"/><path d="M 629 342 Z" fill="#2E7D6B"/><path d="M 451 340 Z" fill="#2E7D6B"/><path d="M 393 339 Z" fill="#2E7D6B"/><path d="M 632 334 Z" fill="#2E7D6B"/><path d="M 448 331 448 332 Z" fill="#2E7D6B"/><path d="M 228 330 Z" fill="#2E7D6B"/><path d="M 795 329 Z" fill="#2E7D6B"/><path d="M 795 327 Z" fill="#2E7D6B"/><path d="M 576 326 Z" fill="#2E7D6B"/><path d="M 446 324 Z" fill="#2E7D6B"/><path d="M 229 322 Z" fill="#2E7D6B"/><path d="M 445 321 Z" fill="#2E7D6B"/><path d="M 794 320 Z" fill="#2E7D6B"/><path d="M 229 320 Z" fill="#2E7D6B"/><path d="M 444 317 Z" fill="#2E7D6B"/><path d="M 579 316 579 317 Z" fill="#2E7D6B"/><path d="M 580 313 580 314 Z" fill="#2E7D6B"/><path d="M 443 313 443 314 Z" fill="#2E7D6B"/><path d="M 231 313 Z" fill="#2E7D6B"/><path d="M 791 309 Z" fill="#2E7D6B"/><path d="M 581 309 Z" fill="#2E7D6B"/><path d="M 442 308 Z" fill="#2E7D6B"/><path d="M 441 305 Z" fill="#2E7D6B"/><path d="M 235 302 Z" fill="#2E7D6B"/><path d="M 440 300 Z" fill="#2E7D6B"/><path d="M 583 298 583 299 Z" fill="#2E7D6B"/><path d="M 584 292 Z" fill="#2E7D6B"/><path d="M 439 291 439 293 Z" fill="#2E7D6B"/><path d="M 438 284 438 285 Z" fill="#2E7D6B"/><path d="M 333 267 Z" fill="#2E7D6B"/><path d="M 693 266 Z" fill="#2E7D6B"/><path d="M 326 264 327 264 Z" fill="#2E7D6B"/><path d="M 318 261 Z" fill="#2E7D6B"/><path d="M 719 260 718 261 713 261 712 262 709 262 708 263 705 263 704 264 702 264 701 265 700 265 699 266 697 266 696 267 695 267 694 268 693 268 692 269 691 269 690 270 689 270 688 271 687 271 686 272 685 272 683 274 682 274 680 276 679 276 677 278 676 278 672 282 671 282 657 296 657 297 653 301 653 302 651 304 651 305 648 308 648 309 647 310 647 311 645 313 645 314 643 316 643 317 642 318 642 319 641 320 641 321 640 322 640 323 639 324 639 325 638 326 638 327 637 328 637 329 636 330 636 331 635 332 635 333 634 334 634 336 633 337 633 338 632 339 632 340 631 341 631 343 630 344 630 345 629 346 629 348 628 349 628 351 627 352 627 354 626 355 626 356 625 357 625 359 624 360 624 363 623 364 623 365 622 366 622 369 621 370 621 372 620 373 620 375 619 376 619 378 618 379 618 382 617 383 617 385 616 386 616 389 615 390 615 392 614 393 614 395 613 396 613 398 612 399 612 402 611 403 611 405 610 406 610 408 609 409 609 411 608 412 608 415 607 416 607 418 606 419 606 421 605 422 605 424 604 425 604 427 603 428 603 430 602 431 602 433 601 434 601 436 600 437 600 439 599 440 599 442 598 443 598 445 597 446 597 448 596 449 596 450 595 451 595 453 594 454 594 456 593 457 593 458 592 459 592 461 591 462 591 464 590 465 590 466 589 467 589 469 588 470 588 472 587 473 587 474 586 475 586 476 585 477 585 479 584 480 584 481 583 482 583 484 582 485 582 486 581 487 581 488 580 489 580 491 579 492 579 493 578 494 578 495 577 496 577 498 576 499 576 500 575 501 575 502 574 503 574 504 573 505 573 507 572 508 572 509 571 510 571 511 570 512 570 513 569 514 569 515 568 516 568 517 567 518 567 519 566 520 566 522 565 523 565 524 563 526 563 528 562 529 562 530 561 531 561 532 560 533 560 534 559 535 559 536 557 538 557 540 555 542 555 543 554 544 554 545 553 546 553 547 552 548 552 549 551 550 551 551 550 552 550 553 549 554 549 555 548 556 548 557 547 558 547 559 546 560 546 561 545 562 545 563 544 564 544 565 542 567 542 568 541 569 541 570 540 571 540 573 539 574 539 575 538 576 538 577 537 578 537 579 536 580 536 581 535 582 535 583 534 584 534 585 533 586 533 588 532 589 532 590 531 591 531 592 530 593 530 595 529 596 529 597 528 598 528 600 527 601 527 602 526 603 526 605 525 606 525 608 524 609 524 611 523 612 523 614 522 615 522 617 521 618 521 620 520 621 520 624 519 625 519 628 518 629 518 632 517 633 517 636 516 637 516 641 515 642 515 647 514 648 514 655 513 656 513 659 514 659 514 655 515 654 515 650 516 649 516 646 517 645 517 643 518 642 518 640 519 639 519 636 520 635 520 634 521 633 521 631 522 630 522 629 523 628 523 626 524 625 524 624 525 623 525 622 526 621 526 620 527 619 527 618 528 617 528 616 529 615 529 614 530 613 530 612 531 611 531 610 532 609 532 608 534 606 534 605 535 604 535 603 537 601 537 600 539 598 539 597 541 595 541 594 543 592 543 591 546 588 546 587 549 584 549 583 552 580 552 579 557 574 557 573 563 567 564 568 563 567 563 566 595 534 596 534 604 526 605 526 611 520 612 520 617 515 618 515 621 512 622 512 626 508 627 508 630 505 631 505 634 502 635 502 639 498 640 498 642 496 643 496 646 493 647 493 649 491 650 491 652 489 653 489 656 486 657 486 659 484 660 484 662 482 663 482 665 480 666 480 668 478 669 478 671 476 672 476 674 474 675 474 677 472 678 472 680 470 681 470 683 468 684 468 685 467 686 467 688 465 689 465 691 463 692 463 694 461 695 461 697 459 698 459 699 458 700 458 702 456 703 456 705 454 706 454 708 452 709 452 711 450 712 450 714 448 715 448 718 445 719 445 721 443 722 443 724 441 725 441 728 438 729 438 732 435 733 435 736 432 737 432 741 428 742 428 748 422 749 422 768 403 768 402 772 398 772 397 774 395 774 394 776 392 776 391 778 389 778 388 780 386 780 385 781 384 781 383 782 382 782 381 783 380 783 379 784 378 784 377 785 376 785 375 786 374 786 373 787 372 787 370 788 369 788 367 789 366 789 364 790 363 790 361 791 360 791 357 792 356 792 351 793 350 793 340 794 339 794 336 793 335 793 326 792 325 792 320 791 319 791 316 790 315 790 312 789 311 789 309 788 308 788 306 787 305 787 304 786 303 786 301 785 300 785 299 784 298 784 297 783 296 783 295 782 294 782 293 780 291 780 290 778 288 778 287 776 285 776 284 771 279 771 278 770 277 769 277 763 271 762 271 760 269 759 269 758 268 757 268 755 266 754 266 753 265 751 265 750 264 749 264 748 263 746 263 745 262 743 262 742 261 737 261 736 260 Z" fill="#2E7D6B"/><path d="M 709 260 710 260 Z" fill="#2E7D6B"/><path d="M 314 260 315 260 Z" fill="#2E7D6B"/><path d="M 288 260 287 261 283 261 282 262 279 262 278 263 276 263 275 264 273 264 272 265 271 265 270 266 269 266 268 267 267 267 266 268 265 268 263 270 262 270 260 272 259 272 248 283 248 284 245 287 245 288 243 290 243 291 242 292 242 293 240 295 240 296 239 297 239 298 238 299 238 301 237 302 237 303 236 304 236 305 235 306 235 308 234 309 234 311 233 312 233 315 232 316 232 319 231 320 231 324 230 325 230 350 231 351 231 356 232 357 232 360 233 361 233 363 234 364 234 366 235 367 235 369 236 370 236 372 237 373 237 374 238 375 238 376 239 377 239 378 240 379 240 380 241 381 241 382 242 383 242 384 243 385 243 386 245 388 245 389 246 390 246 391 248 393 248 394 251 397 251 398 256 403 256 404 270 418 269 419 270 418 271 419 272 419 278 425 279 425 283 429 284 429 288 433 289 433 292 436 293 436 296 439 297 439 299 441 300 441 303 444 304 444 306 446 307 446 309 448 310 448 312 450 313 450 315 452 316 452 319 455 320 455 322 457 323 457 325 459 326 459 327 460 328 460 330 462 331 462 333 464 334 464 336 466 337 466 339 468 340 468 342 470 341 471 342 470 343 470 345 472 346 472 348 474 349 474 351 476 352 476 354 478 355 478 357 480 358 480 360 482 361 482 363 484 364 484 367 487 368 487 370 489 371 489 373 491 372 492 373 493 372 492 373 491 374 491 377 494 378 494 380 496 381 496 384 499 385 499 388 502 389 502 392 505 393 505 396 508 397 508 401 512 402 512 406 516 407 516 412 521 413 521 419 527 420 527 429 536 430 536 457 563 457 564 465 572 465 573 470 578 470 579 474 583 474 584 477 587 477 588 480 591 480 592 482 594 482 595 484 597 484 598 486 600 486 601 488 603 488 604 489 605 489 606 491 608 491 609 492 610 492 611 493 612 493 613 494 614 494 615 493 616 494 615 495 616 495 617 496 618 496 619 497 620 497 621 498 622 498 623 499 624 499 625 500 626 500 627 501 628 501 630 502 631 502 632 503 633 503 635 504 636 504 638 505 639 505 641 506 642 506 644 507 645 507 648 508 649 508 652 509 653 509 658 510 659 510 654 509 653 509 650 510 649 511 650 511 651 512 652 512 653 512 648 511 647 510 648 508 646 508 642 507 641 507 637 506 636 506 632 505 631 505 628 504 627 504 624 503 623 503 621 502 620 502 618 501 617 501 615 500 614 500 612 499 611 499 609 498 608 498 606 497 605 497 603 496 602 496 600 495 599 495 598 494 597 494 596 493 595 493 593 492 592 492 591 491 590 491 589 490 588 490 587 489 586 489 584 488 583 488 582 487 581 487 580 486 579 486 578 485 577 485 576 484 575 484 574 483 573 483 572 482 571 482 570 481 569 481 568 480 567 480 566 479 565 479 564 478 563 478 562 477 561 477 560 476 559 476 558 475 557 475 556 474 555 474 554 473 553 473 552 472 551 472 550 471 549 471 548 470 547 470 546 469 545 469 544 468 543 468 542 466 540 466 539 465 538 465 537 464 536 464 535 463 534 463 533 462 532 462 531 461 530 461 529 460 528 460 527 459 526 459 524 457 522 457 520 456 519 456 518 455 517 455 516 454 515 454 514 453 513 453 512 452 511 452 510 451 509 451 508 450 507 450 505 449 504 449 503 448 502 448 501 447 500 447 499 446 498 446 496 445 495 445 494 444 493 444 492 443 491 443 489 442 488 442 487 441 486 441 485 440 484 440 482 439 481 439 480 438 479 438 477 437 476 437 475 436 474 436 472 435 471 435 470 434 469 434 467 433 466 433 464 432 463 432 462 431 461 431 459 430 458 430 456 429 455 429 453 428 452 428 451 427 450 427 448 426 447 426 445 425 444 425 442 424 441 424 439 423 438 423 436 422 435 422 433 421 432 421 430 420 429 420 427 419 426 419 424 418 423 418 421 417 420 417 418 416 417 416 415 415 414 415 412 414 411 414 409 413 408 413 405 412 404 412 402 411 401 411 399 410 398 410 396 409 395 409 392 408 391 408 389 407 388 407 385 406 384 406 382 405 381 405 379 404 378 404 375 403 374 403 372 402 371 402 369 401 368 401 366 400 365 400 363 399 362 399 360 398 359 398 357 397 356 397 354 396 353 396 351 395 350 395 349 394 348 394 346 393 345 393 343 392 342 392 341 391 340 391 338 390 337 390 336 389 335 389 334 388 333 388 332 387 331 387 329 386 328 386 327 385 326 385 325 384 324 384 323 383 322 383 321 381 319 381 318 380 317 380 316 379 315 379 314 377 312 377 311 375 309 375 308 373 306 373 305 372 304 372 303 368 299 368 298 358 288 358 287 357 287 350 280 349 280 346 277 345 277 343 275 342 275 340 273 339 273 338 272 337 272 335 270 334 270 333 269 332 269 331 268 330 268 329 267 327 267 326 266 325 266 324 265 323 265 322 264 320 264 319 263 316 263 315 262 313 262 312 261 306 261 305 260 Z" fill="#2E7D6B"/><path d="M 713 259 Z" fill="#2E7D6B"/><path d="M 310 259 Z" fill="#2E7D6B"/><path d="M 735 258 737 258 Z" fill="#2E7D6B"/><path d="M 732 258 733 258 Z" fill="#2E7D6B"/><path d="M 729 258 Z" fill="#2E7D6B"/><path d="M 723 258 727 258 Z" fill="#2E7D6B"/><path d="M 719 258 721 258 Z" fill="#2E7D6B"/><path d="M 438 258 Z" fill="#2E7D6B"/><path d="M 302 258 305 258 Z" fill="#2E7D6B"/><path d="M 299 258 300 258 Z" fill="#2E7D6B"/><path d="M 290 258 292 258 Z" fill="#2E7D6B"/><path d="M 584 251 Z" fill="#2E7D6B"/><path d="M 440 246 Z" fill="#2E7D6B"/><path d="M 583 244 583 246 Z" fill="#2E7D6B"/><path d="M 582 240 Z" fill="#2E7D6B"/><path d="M 581 236 Z" fill="#2E7D6B"/><path d="M 442 234 442 235 Z" fill="#2E7D6B"/><path d="M 444 228 Z" fill="#2E7D6B"/><path d="M 445 225 Z" fill="#2E7D6B"/><path d="M 577 223 Z" fill="#2E7D6B"/><path d="M 574 215 Z" fill="#2E7D6B"/><path d="M 483 174 Z" fill="#2E7D6B"/><path d="M 489 171 Z" fill="#2E7D6B"/><path d="M 526 168 526 169 Z" fill="#2E7D6B"/><path d="M 507 168 506 169 500 169 499 170 496 170 495 171 493 171 492 172 491 172 490 173 488 173 487 174 486 174 484 176 483 176 482 177 481 177 478 180 477 180 464 193 464 194 461 197 461 198 459 200 459 201 457 203 457 204 456 205 456 206 454 208 454 209 453 210 453 211 452 212 452 214 451 215 451 216 450 217 450 218 449 219 449 221 448 222 448 223 447 224 447 227 446 228 446 230 445 231 445 233 444 234 444 237 443 238 443 242 442 243 442 248 441 249 441 255 440 256 440 270 439 271 439 275 440 276 440 287 441 288 441 295 442 296 442 300 443 301 443 306 444 307 444 310 445 311 445 314 446 315 446 318 447 319 447 322 448 323 448 325 449 326 449 328 450 329 450 331 451 332 451 334 452 335 452 337 453 338 453 340 454 341 454 343 455 344 455 346 456 347 456 349 457 350 457 351 458 352 458 354 459 355 459 356 460 357 460 359 461 360 461 362 462 363 462 364 463 365 463 367 464 368 464 369 465 370 465 372 466 373 466 374 467 375 467 377 468 378 468 380 469 381 469 382 470 383 470 385 471 386 471 388 472 389 472 390 473 391 473 393 474 394 474 396 475 397 475 398 476 399 476 401 477 402 477 404 478 405 478 407 479 408 479 410 480 411 480 413 481 414 481 416 482 417 482 419 483 420 483 422 484 423 484 425 485 426 485 428 486 429 486 431 487 432 487 434 488 435 488 437 489 438 489 441 490 442 490 444 491 445 491 448 492 449 492 451 493 452 493 455 494 456 494 459 495 460 495 462 496 463 496 467 497 468 497 471 498 472 498 475 499 476 499 479 500 480 500 484 501 485 501 489 502 490 502 494 503 495 503 499 504 500 504 505 505 506 505 510 506 511 506 517 507 518 507 523 508 524 508 532 509 533 509 540 510 541 510 551 511 552 511 558 512 558 512 545 513 544 513 536 514 535 514 528 515 527 515 521 516 520 516 515 517 514 517 509 518 508 518 504 519 503 519 499 520 498 520 493 521 492 521 489 522 488 522 484 523 483 523 480 524 479 524 475 525 474 525 471 526 470 526 467 527 466 527 463 528 462 528 459 529 458 529 456 530 455 530 452 531 451 531 448 532 447 532 445 533 444 533 441 534 440 534 438 535 437 535 435 536 434 536 431 537 430 537 428 538 427 538 425 539 424 539 422 540 421 540 419 541 418 541 416 542 415 542 413 543 412 543 410 544 409 544 407 545 406 545 405 546 404 546 402 547 401 547 399 548 398 548 396 549 395 549 393 550 392 550 391 551 390 551 388 552 387 552 385 553 384 553 383 554 382 554 380 555 379 555 377 556 376 556 375 557 374 557 372 558 371 558 370 559 369 559 367 560 366 560 364 561 363 561 362 562 361 562 359 563 358 563 356 564 355 564 354 565 353 565 351 566 350 566 349 567 348 567 346 568 345 568 343 569 342 569 340 570 339 570 338 571 337 571 335 572 334 572 332 573 331 573 328 574 327 574 325 575 324 575 322 576 321 576 318 577 317 577 315 578 314 578 311 579 310 579 307 580 306 580 301 581 300 581 295 582 294 582 288 583 287 583 257 582 256 582 249 581 248 581 244 580 243 580 239 579 238 579 235 578 234 578 231 577 230 577 228 576 227 576 225 575 224 575 223 574 222 574 220 573 219 573 217 572 216 572 215 571 214 571 213 570 212 570 211 569 210 569 209 568 208 568 207 567 206 567 205 565 203 565 202 563 200 563 199 561 197 561 196 550 185 551 184 550 185 548 183 547 183 544 180 543 180 541 178 540 178 538 176 537 176 536 175 535 175 534 174 533 174 532 173 531 173 530 172 528 172 527 171 525 171 524 170 521 170 520 169 513 169 512 168 Z" fill="#2E7D6B"/><path d="M 497 168 Z" fill="#2E7D6B"/><path d="M 503 167 Z" fill="#2E7D6B"/></svg>